<?xml version="1.0" encoding="UTF-8"?>
<!DOCTYPE svg PUBLIC "-//W3C//DTD SVG 1.1//EN" "http://www.w3.org/Graphics/SVG/1.1/DTD/svg11.dtd">
<!-- Creator: CorelDRAW 2020 (64 Bit) -->
<svg xmlns="http://www.w3.org/2000/svg" xml:space="preserve" width="43.3492mm" height="43.3492mm" version="1.1" style="shape-rendering:geometricPrecision; text-rendering:geometricPrecision; image-rendering:optimizeQuality; fill-rule:evenodd; clip-rule:evenodd"
viewBox="0 0 4334.92 4334.92"
 xmlns:xlink="http://www.w3.org/1999/xlink"
 xmlns:xodm="http://www.corel.com/coreldraw/odm/2003">
 <defs>
  <style type="text/css">
   <![CDATA[
    .fil0 {fill:#FEFEFE}
    .fil1 {fill:#009688;fill-rule:nonzero}
   ]]>
  </style>
 </defs>
 <g id="Camada_x0020_1">
  <metadata id="CorelCorpID_0Corel-Layer"/>
  <g id="_1759300016000">
   <path class="fil0" d="M2132.17 22.25c1178.16,-44.11 2255.49,949.41 2167.26,2162.86 -88.23,1213.45 -993.52,2043.74 -2131.97,2043.74 -1138.45,0 -2080.09,-941.64 -2061.39,-2061.39 18.7,-1119.75 847.94,-2101.1 2026.1,-2145.21z"/>
   <path id="path1" class="fil1" d="M2633.11 4114.37c491.25,-241.9 813.76,-529.96 1084.9,-969.07 128.68,-208.31 221.92,-422.69 302.15,-694.48 154.25,-522.84 153.48,-865.6 -2.83,-1272.57 -67.49,-175.6 -72.37,-197.81 -32.07,-145.55 81.17,105.22 180.18,364.33 221.94,580.78 32.44,168.13 27.56,568.01 -9.05,737.96 -89.09,414.21 -323.7,884.19 -596.92,1195.83 -326.38,372.34 -770.91,638.04 -1137.19,679.81 -67.94,7.71 -46.45,-6.62 169.02,-112.71l0.05 0zm-1132.21 7.66c-73.41,-25.57 -141.09,-53.96 -150.36,-63.11 -10.49,-10.33 51.22,-16.64 161.74,-16.64 449.23,0 875.32,-224.73 1342.63,-708.14 356.22,-368.44 599.6,-799.19 720.15,-1274.42 157.08,-619.18 82.48,-1103.19 -232.68,-1510.61 -101.68,-131.42 -250.54,-258.71 -409.01,-349.7 -161.07,-92.54 -72.17,-75.42 124.59,23.95 189.06,95.55 284.05,167.54 435.14,329.93 229.52,246.65 352.18,566.33 369.63,963.39 26.76,608.69 -178.45,1238.74 -572.54,1757.7 -211.56,278.61 -572.07,585.41 -855.03,727.65 -237.38,119.3 -358.15,152.09 -587.26,159.53 -194.18,6.34 -225.63,2.76 -347,-39.53l0 0zm-489.39 -317.84c-135.61,-45.62 -231.8,-107.04 -333.64,-213.11 -56.28,-58.58 -102.31,-113.26 -102.31,-121.42 0,-8.21 51.11,9.1 113.64,38.48 274.13,128.76 640.22,71.69 1052.16,-164.03 367.87,-210.5 691.75,-527.17 930.07,-909.28 141.79,-227.44 273.32,-571.68 306.63,-802.52 22.8,-158.16 21.98,-470.65 -1.59,-600.75 -10.53,-58.31 -53.83,-179.91 -96.26,-270.23 -60.92,-129.75 -102.63,-189.8 -198.79,-285.97 -118.17,-118.16 -288.22,-224.53 -433.23,-270.93 -184.07,-58.95 -456.03,-56.84 -694.94,5.38 -53.27,13.85 -99.91,22.04 -103.75,18.23 -10.51,-10.6 80.1,-42.56 238.25,-84.08 181.42,-47.59 512.34,-50.9 685.11,-6.79 342.98,87.44 624.23,313.83 770.76,620.3 44.21,92.47 93.98,228.39 110.61,302.05 38.81,172.06 38.54,555.4 -0.57,776.84 -105.48,597.79 -444.48,1133.42 -1001.58,1582.63 -212.05,170.94 -453.89,296.52 -705.38,366.22 -133.96,37.11 -448.02,48.26 -535.14,18.98l-0.05 0zm2748.31 -292.27c10.46,-21.56 27.12,-44.23 37.01,-50.34 65.62,-40.73 303.9,-465.16 363.33,-647.25 34.67,-106.07 49.82,-121.99 34.08,-35.7 -16.78,92.04 -153.07,370.43 -252.2,515.03 -100.58,146.75 -212.73,281.03 -182.22,218.26zm-3219.87 -335.67c-97.83,-31.57 -200.78,-114.63 -261.28,-210.85 -35.81,-56.91 -130.19,-295.95 -130.19,-329.7 0,-3.93 42.04,28.73 93.41,72.68 249.08,212.97 465.85,236.3 829.58,89.31 618.71,-250 1011.24,-710.85 1143.76,-1342.9 31.45,-149.77 33.63,-191.49 17.03,-322.44 -33.81,-266.49 -154.66,-456.92 -347.75,-547.74 -186.2,-87.56 -388.44,-68.48 -572.24,54.01 -113.41,75.59 -135.72,80.57 -76.93,17.11 300.41,-324.18 917.95,-286.92 1162.75,70.18 130.53,190.45 191.08,494.8 154.85,778.48 -77.65,607.57 -544.91,1254.09 -1114.3,1541.78 -211.55,106.9 -360.06,144.36 -596.18,150.28 -158.62,4.03 -245.36,-1.79 -302.46,-20.2l-0.05 0zm-62.26 -650.93c-281.27,-68.26 -416.25,-326.12 -358.45,-684.73 15.59,-96.69 37.32,-97.98 52.64,-3.23 27.91,172.59 174.23,305.25 357.76,324.23 506.04,52.41 1116.62,-541.87 1043.58,-1015.71 -7.06,-45.79 -26.84,-104.75 -43.97,-130.97 -40.25,-61.69 -142.88,-104.6 -219.95,-92.06 -81.67,13.28 -67.27,-20.25 31,-72.44 141.77,-75.23 330.25,-39.33 432.26,82.39 128.65,153.48 132.64,464.03 9.72,757.77 -94.78,226.51 -349.83,516.79 -573.11,652.31 -246.38,149.53 -552.56,225.9 -731.48,182.44l0 0zm-6.67 -790.05c-98.81,-49.11 -143.67,-140.05 -144.22,-292.47 -0.84,-224.63 106.23,-491.05 274.69,-683.61 54.25,-62.02 98.61,-109.25 98.61,-104.95 0,4.28 -36.9,69.48 -82.08,144.83 -45.11,75.37 -93.14,174.13 -106.75,219.45 -48.53,161.89 -20.37,325.95 66.35,386.92 52.02,36.62 224.96,38.88 307.97,4.1 124.51,-52.21 272.37,-225.72 302.11,-354.5 14.21,-61.54 33.66,-62.09 72.89,-2.04 22.43,34.38 28.7,72.04 23.13,139.43 -20.92,252.88 -262.91,502.56 -544.46,561.72 -134.08,28.13 -180.03,24.9 -268.24,-18.88z"/>
  </g>
 </g>
</svg>
