<?xml version="1.0" encoding="UTF-8" standalone="no"?>
<!-- Created with Inkscape (http://www.inkscape.org/) -->

<svg
   width="39.6875mm"
   height="39.6875mm"
   viewBox="0 0 39.6875 39.6875"
   version="1.1"
   id="svg1"
   inkscape:version="1.3 (0e150ed6c4, 2023-07-21)"
   sodipodi:docname="logos.svg"
   xml:space="preserve"
   xmlns:inkscape="http://www.inkscape.org/namespaces/inkscape"
   xmlns:sodipodi="http://sodipodi.sourceforge.net/DTD/sodipodi-0.dtd"
   xmlns="http://www.w3.org/2000/svg"
   xmlns:svg="http://www.w3.org/2000/svg"><sodipodi:namedview
     id="namedview1"
     pagecolor="#ffffff"
     bordercolor="#000000"
     borderopacity="0.25"
     inkscape:showpageshadow="2"
     inkscape:pageopacity="0.0"
     inkscape:pagecheckerboard="0"
     inkscape:deskcolor="#d1d1d1"
     inkscape:document-units="mm"
     inkscape:zoom="0.92255339"
     inkscape:cx="398.35093"
     inkscape:cy="647.65899"
     inkscape:window-width="1366"
     inkscape:window-height="697"
     inkscape:window-x="-8"
     inkscape:window-y="-8"
     inkscape:window-maximized="1"
     inkscape:current-layer="layer1" /><defs
     id="defs1" /><g
     inkscape:label="Camada 1"
     inkscape:groupmode="layer"
     id="layer1"><path
       id="path13"
       style="fill:none;stroke:#008000;stroke-width:0"
       d="M 2.7777778e-7,2.7777778e-7 H 39.6875 V 39.687501 H 2.7777778e-7 Z"
       inkscape:export-filename="..\..\..\..\..\world-encad\public\img\icons\apple-touch-icon-180x180.png"
       inkscape:export-xdpi="96"
       inkscape:export-ydpi="96" /><path
       style="fill:#009688;fill-opacity:1;stroke-width:0.392919"
       d="m 21.835966,25.905378 c 2.101813,-1.031134 3.481648,-2.259045 4.641836,-4.130782 0.550418,-0.887987 0.949385,-1.801769 1.29253,-2.960325 0.660104,-2.228679 0.656864,-3.689706 -0.01208,-5.424408 -0.28863,-0.748533 -0.309573,-0.843257 -0.137127,-0.620457 0.347234,0.448635 0.770838,1.553075 0.949498,2.475604 0.138811,0.716711 0.117909,2.42116 -0.03857,3.145724 -0.381287,1.765511 -1.385051,3.768911 -2.553891,5.097288 -1.396556,1.587187 -3.29832,2.719835 -4.865506,2.897773 -0.290718,0.03298 -0.198726,-0.02809 0.72328,-0.480417 z m -4.844062,0.03271 c -0.314053,-0.108964 -0.603556,-0.230062 -0.643335,-0.269027 -0.04475,-0.04387 0.219222,-0.07095 0.692066,-0.07095 1.922039,0 3.745032,-0.957938 5.744371,-3.018498 1.523978,-1.57064 2.565329,-3.406724 3.081056,-5.432453 0.67195,-2.639373 0.352959,-4.702595 -0.995553,-6.439199 -0.43491,-0.560094 -1.07186,-1.102698 -1.749775,-1.4906358 -0.689147,-0.3943467 -0.308906,-0.3214311 0.53294,0.1022222 0.808866,0.4070356 1.21536,0.7140716 1.861735,1.4062136 0.981965,1.051471 1.506696,2.414133 1.581394,4.106671 0.114507,2.594528 -0.763523,5.280199 -2.449492,7.492376 -0.905195,1.187729 -2.447513,2.495342 -3.658346,3.101653 -1.015497,0.508529 -1.532224,0.6484 -2.512439,0.680134 -0.830813,0.02689 -0.965361,0.01169 -1.484621,-0.168578 z m -2.093698,-1.354871 c -0.580318,-0.194315 -0.991819,-0.456133 -1.427524,-0.908267 -0.240772,-0.249853 -0.437769,-0.482853 -0.437769,-0.51776 0,-0.03489 0.218762,0.03889 0.486139,0.164036 1.172915,0.548862 2.739145,0.30564 4.501578,-0.699129 1.573953,-0.897297 2.959667,-2.247062 3.979303,-3.876026 0.606739,-0.969351 1.169504,-2.436777 1.311885,-3.420813 0.09755,-0.674138 0.09408,-2.006107 -0.0068,-2.560796 -0.04511,-0.248493 -0.230492,-0.766795 -0.411921,-1.151826 -0.260648,-0.553111 -0.439181,-0.808969 -0.850607,-1.218933 -0.505514,-0.5037156 -1.23299,-0.95704 -1.853443,-1.1549645 -0.787551,-0.2512 -1.951201,-0.2422533 -2.973403,0.022844 -0.2277,0.059089 -0.427369,0.094018 -0.443701,0.077618 -0.04509,-0.045011 0.342675,-0.1813422 1.019239,-0.3582266 0.7761,-0.2028978 2.191962,-0.2169556 2.931175,-0.029111 1.467413,0.3729111 2.670849,1.3378311 3.297752,2.6441731 0.189126,0.394089 0.402025,0.973493 0.473113,1.287542 0.166015,0.73344 0.164834,2.367396 -0.0025,3.311529 -0.451323,2.548008 -1.901727,4.831279 -4.285252,6.745972 -0.907157,0.72872 -1.941938,1.263996 -3.017828,1.561049 -0.573239,0.158253 -1.916907,0.205782 -2.289673,0.08099 z m 11.758306,-1.245836 c 0.04479,-0.09196 0.116052,-0.188444 0.158373,-0.2146 0.280667,-0.17348 1.300175,-1.982799 1.554555,-2.75887 0.148236,-0.45228 0.213122,-0.520018 0.145815,-0.15228 -0.07183,0.39252 -0.655053,1.579066 -1.079112,2.19543 -0.430305,0.625449 -0.910051,1.197938 -0.779631,0.93032 z M 12.88064,21.90652 c -0.418563,-0.134511 -0.859135,-0.488667 -1.117974,-0.898689 -0.153145,-0.242586 -0.556984,-1.261649 -0.556984,-1.405498 0,-0.01689 0.179869,0.122605 0.399707,0.309885 1.065633,0.907818 1.992953,1.00728 3.549306,0.380733 2.647042,-1.06564 4.326388,-3.030106 4.893495,-5.72427 0.134407,-0.638556 0.143816,-0.816227 0.0728,-1.374538 -0.144541,-1.136057 -0.661712,-1.947604 -1.487885,-2.334742 -0.796681,-0.373338 -1.661814,-0.292004 -2.448244,0.230156 -0.485189,0.322164 -0.580665,0.343315 -0.329199,0.07301 1.285444,-1.3819159 3.927532,-1.2230893 4.974833,0.299066 0.558515,0.811747 0.817517,2.109151 0.662439,3.318369 -0.332122,2.589737 -2.331361,5.345764 -4.767484,6.572124 -0.905133,0.455648 -1.540475,0.615213 -2.550509,0.640613 -0.678682,0.01702 -1.049964,-0.0082 -1.294289,-0.08623 z m -0.266467,-2.774524 c -1.20335,-0.291085 -1.780836,-1.390249 -1.533584,-2.918938 0.06665,-0.412071 0.159613,-0.417688 0.225181,-0.01364 0.119376,0.735636 0.745566,1.300991 1.53073,1.382031 2.16493,0.223445 4.777343,-2.309818 4.464874,-4.329578 -0.03023,-0.195301 -0.114871,-0.446546 -0.188123,-0.558332 -0.172243,-0.262885 -0.611236,-0.445872 -0.941188,-0.392338 -0.349212,0.05662 -0.287678,-0.08633 0.132789,-0.30876 0.606478,-0.320707 1.412944,-0.167631 1.84938,0.351031 0.550498,0.654227 0.567574,1.978164 0.04168,3.230173 -0.405595,0.965582 -1.496743,2.202862 -2.452205,2.780612 -1.053997,0.637343 -2.364013,0.962894 -3.129529,0.777734 z m -0.02843,-3.36788 c -0.422857,-0.209302 -0.61472,-0.596915 -0.617082,-1.246613 -0.0036,-0.957413 0.454548,-2.093182 1.175137,-2.913951 0.232107,-0.2644 0.422019,-0.465729 0.422019,-0.447417 0,0.01835 -0.158006,0.296146 -0.35112,0.617448 -0.193113,0.32128 -0.398678,0.742196 -0.456807,0.935352 -0.207658,0.689999 -0.08728,1.389412 0.283878,1.649386 0.222651,0.155942 0.962455,0.165702 1.317495,0.01738 0.532827,-0.222635 1.165477,-0.962142 1.292693,-1.511052 0.06082,-0.262427 0.144116,-0.264729 0.311905,-0.0092 0.096,0.146533 0.122714,0.307008 0.0989,0.594195 -0.08941,1.078053 -1.124869,2.142444 -2.329385,2.394435 -0.573751,0.12 -0.770336,0.106236 -1.147627,-0.08049 z"
       id="path14" /></g></svg>
