<?xml version="1.0" encoding="UTF-8" standalone="no"?>
<!-- Created with Inkscape (http://www.inkscape.org/) -->

<svg
   width="16"
   height="16"
   viewBox="0 0 4.2333333 4.2333332"
   version="1.1"
   id="svg1"
   inkscape:version="1.3 (0e150ed6c4, 2023-07-21)"
   sodipodi:docname="safari-pinned-tab.svg"
   xml:space="preserve"
   xmlns:inkscape="http://www.inkscape.org/namespaces/inkscape"
   xmlns:sodipodi="http://sodipodi.sourceforge.net/DTD/sodipodi-0.dtd"
   xmlns="http://www.w3.org/2000/svg"
   xmlns:svg="http://www.w3.org/2000/svg"><sodipodi:namedview
     id="namedview1"
     pagecolor="#ffffff"
     bordercolor="#000000"
     borderopacity="0.25"
     inkscape:showpageshadow="2"
     inkscape:pageopacity="0.0"
     inkscape:pagecheckerboard="0"
     inkscape:deskcolor="#d1d1d1"
     inkscape:document-units="mm"
     inkscape:zoom="31.3125"
     inkscape:cx="8"
     inkscape:cy="8"
     inkscape:window-width="1366"
     inkscape:window-height="697"
     inkscape:window-x="-8"
     inkscape:window-y="-8"
     inkscape:window-maximized="1"
     inkscape:current-layer="layer1" /><defs
     id="defs1" /><g
     inkscape:label="Camada 1"
     inkscape:groupmode="layer"
     id="layer1"><path
       style="fill:#009688;fill-opacity:1;stroke-width:0.082513"
       d="m 2.5350168,3.8594433 c 0.441381,-0.216538 0.731146,-0.474399 0.974785,-0.867464 0.115588,-0.186477 0.199371,-0.378372 0.271432,-0.621669 0.138622,-0.468022 0.137941,-0.774838 -0.0025,-1.1391255 -0.06061,-0.1571919 -0.06501,-0.177084 -0.0288,-0.130296 0.07292,0.094213 0.161876,0.3261459 0.199395,0.5198775 0.02915,0.150509 0.02476,0.508443 -0.0081,0.660602 -0.08007,0.370757 -0.29086,0.791471 -0.536317,1.07043 -0.293277,0.33331 -0.692647,0.571166 -1.021756,0.608533 -0.06105,0.0069 -0.04173,-0.0059 0.151888,-0.100888 z m -1.017254,0.0069 c -0.06595,-0.02288 -0.126746,-0.04831 -0.1351,-0.05649 -0.0094,-0.0092 0.04604,-0.0149 0.145334,-0.0149 0.403628,0 0.786457,-0.201167 1.206318,-0.633885 0.320036,-0.329834 0.538719,-0.715412 0.647022,-1.140815 0.14111,-0.554268 0.07412,-0.9875451 -0.209066,-1.35223202 -0.09133,-0.1176198 -0.225091,-0.2315666 -0.367453,-0.3130336 -0.144721,-0.082813 -0.06487,-0.0675 0.111917,0.021467 0.169862,0.085477 0.255226,0.149955 0.390965,0.2953049 0.206213,0.220809 0.316406,0.50696802 0.332093,0.86240072 0.02405,0.544851 -0.16034,1.108842 -0.514394,1.573399 -0.190091,0.249424 -0.513978,0.524022 -0.768253,0.651348 -0.213254,0.106791 -0.321767,0.136164 -0.527612,0.142828 -0.174471,0.0056 -0.202726,0.0025 -0.31177,-0.0354 z m -0.439676,-0.284523 c -0.12186696,-0.04081 -0.20828196,-0.09579 -0.29977996,-0.190736 -0.05056,-0.05247 -0.09193,-0.101399 -0.09193,-0.108729 0,-0.0073 0.04594,0.0082 0.102089,0.03445 0.24631296,0.115261 0.57522096,0.06419 0.94533196,-0.146817 0.33053,-0.188432 0.62153,-0.471883 0.835654,-0.813966 0.127415,-0.203563 0.245596,-0.511723 0.275496,-0.71837 0.02049,-0.141569 0.01976,-0.421283 -0.0014,-0.5377677 -0.0095,-0.052183 -0.0484,-0.16102702 -0.0865,-0.24188352 -0.05474,-0.1161533 -0.09223,-0.1698835 -0.178627,-0.255976 -0.106158,-0.1057803 -0.258928,-0.2009784 -0.389223,-0.2425426 -0.165386,-0.052752 -0.409753,-0.050873 -0.624415,0.0048 -0.04782,0.012409 -0.08975,0.019744 -0.09318,0.0163 -0.0095,-0.00945 0.07196,-0.038082 0.21404,-0.075228 0.162981,-0.042609 0.460312,-0.045561 0.615547,-0.00611 0.308157,0.078311 0.560878,0.2809446 0.692528,0.5552765 0.03972,0.082759 0.08443,0.20443362 0.09935,0.27038392 0.03486,0.1540224 0.03462,0.4971534 -5.25e-4,0.6954214 -0.09478,0.535082 -0.399363,1.014569 -0.899904,1.416654 -0.190503,0.153032 -0.407807,0.26544 -0.633744,0.327821 -0.12038,0.03323 -0.40255,0.04321 -0.480831,0.01701 z m 2.469245,-0.261625 c 0.0094,-0.01931 0.02437,-0.03957 0.03326,-0.04507 0.05894,-0.03643 0.273037,-0.416388 0.326457,-0.579363 0.03113,-0.09498 0.04476,-0.109204 0.03062,-0.03198 -0.01509,0.08243 -0.137561,0.331604 -0.226614,0.461041 -0.09036,0.131344 -0.191111,0.251567 -0.163722,0.195367 z M 0.65439784,3.0196833 c -0.0879,-0.02825 -0.180419,-0.10262 -0.234775,-0.188725 -0.03216,-0.05094 -0.116966,-0.264946 -0.116966,-0.295154 0,-0.0035 0.03777,0.02575 0.08394,0.06508 0.223783,0.190642 0.41852,0.211529 0.74535396,0.07995 0.555879,-0.223784 0.908542,-0.636322 1.027635,-1.202097 0.02822,-0.1340964 0.0302,-0.1714073 0.01529,-0.2886527 -0.03035,-0.23857202 -0.13896,-0.40899692 -0.312456,-0.49029592 -0.167303,-0.078401 -0.348981,-0.061321 -0.514132,0.048333 -0.101889,0.067654 -0.121939,0.072096 -0.06913,0.015332 0.269943,-0.2902024 0.824781,-0.2568488 1.044715,0.062804 0.117288,0.1704669 0.171678,0.44292182 0.139112,0.69685762 -0.06975,0.543845 -0.489586,1.12261 -1.001172,1.380146 -0.190078,0.09569 -0.3235,0.129195 -0.53560696,0.134529 -0.142523,0.0036 -0.220492,-0.0017 -0.271801,-0.01811 z m -0.05596,-0.58265 c -0.252704,-0.06113 -0.373976,-0.291953 -0.322053,-0.612977 0.014,-0.08653 0.03352,-0.08771 0.04729,-0.0029 0.02507,0.154484 0.156569,0.273208 0.321453,0.290227 0.45463596,0.04692 1.00324296,-0.485062 0.93762396,-0.9092118 -0.0063,-0.041013 -0.02412,-0.093775 -0.03951,-0.1172497 -0.03617,-0.055206 -0.128359,-0.093633 -0.197649,-0.082391 -0.07334,0.01189 -0.06041,-0.018129 0.02789,-0.06484 0.127361,-0.067349 0.296719,-0.035203 0.38837,0.073716 0.115605,0.1373877 0.119191,0.4154145 0.0088,0.6783365 -0.08517,0.202772 -0.314316,0.462601 -0.514963,0.583929 -0.221339,0.133842 -0.49644296,0.202207 -0.65720096,0.163324 z m -0.006,-0.707255 c -0.0888,-0.04395 -0.129091,-0.125352 -0.129587,-0.261789 -7.56e-4,-0.2010568 0.09545,-0.4395683 0.246779,-0.61192992 0.04874,-0.055524 0.08862,-0.097803 0.08862,-0.093958 0,0.00385 -0.03318,0.062191 -0.07373,0.1296641 -0.04055,0.067469 -0.08372,0.15586122 -0.09593,0.19642392 -0.04361,0.1448999 -0.01833,0.2917766 0.05962,0.3463712 0.04676,0.032748 0.202115,0.034797 0.276674,0.00365 0.11189296,-0.046753 0.24474996,-0.2020499 0.27146496,-0.317321 0.01277,-0.05511 0.03026,-0.055593 0.0655,-0.00193 0.02016,0.030772 0.02577,0.064472 0.02077,0.124781 -0.01878,0.2263917 -0.236222,0.4499137 -0.48917096,0.5028317 -0.120487,0.0252 -0.16177,0.02231 -0.241001,-0.0169 z"
       id="path14" /></g></svg>
